HIERARCHY
ROOT hips_JNT
{
    OFFSET 0 0 0
    CHANNELS 6 Xposition Yposition Zposition Zrotation Xrotation Yrotation
    JOINT spine_JNT
    {
        OFFSET -0.000424254 9.31981 2.54342
        CHANNELS 3 Zrotation Xrotation Yrotation
        JOINT spine1_JNT
        {
            OFFSET 0 10.8731 -4.54485e-05
            CHANNELS 3 Zrotation Xrotation Yrotation
            JOINT spine2_JNT
            {
                OFFSET 0 12.4264 -5.95116
                CHANNELS 3 Zrotation Xrotation Yrotation
                JOINT neck_JNT
                {
                    OFFSET 0 13.9797 -1.46048
                    CHANNELS 3 Zrotation Xrotation Yrotation
                    JOINT head_JNT
                    {
                        OFFSET 0 5.8702 2.0915
                        CHANNELS 3 Zrotation Xrotation Yrotation
                        End Site
                        {
                            OFFSET 0 0 0
                        }
                    }
                }
                JOINT l_shoulder_JNT
                {
                    OFFSET 4.39914 12.861 -1.48501
                    CHANNELS 3 Zrotation Xrotation Yrotation
                    JOINT l_arm_JNT
                    {
                        OFFSET 8.75735 -2.31198 -0.0490516
                        CHANNELS 3 Zrotation Xrotation Yrotation
                        JOINT l_forearm_JNT
                        {
                            OFFSET 26.9001 -4.76837e-05 1.2666e-05
                            CHANNELS 3 Zrotation Xrotation Yrotation
                            JOINT l_hand_JNT
                            {
                                OFFSET 23.0148 -4.76837e-05 -3.72529e-06
                                CHANNELS 3 Zrotation Xrotation Yrotation
                                JOINT l_handThumb1_JNT
                                {
                                    OFFSET 3.63 -0.779998 2.13
                                    CHANNELS 3 Zrotation Xrotation Yrotation
                                    JOINT l_handThumb2_JNT
                                    {
                                        OFFSET 3.55114 -2.11837 2.24006
                                        CHANNELS 3 Zrotation Xrotation Yrotation
                                        JOINT l_handThumb3_JNT
                                        {
                                            OFFSET 2.15911 -1.11631 0.963467
                                            CHANNELS 3 Zrotation Xrotation Yrotation
                                            End Site
                                            {
                                                OFFSET 0 0 0
                                            }
                                        }
                                    }
                                }
                                JOINT l_handIndex1_JNT
                                {
                                    OFFSET 10.5149 -0.0410199 2.19757
                                    CHANNELS 3 Zrotation Xrotation Yrotation
                                    JOINT l_handIndex2_JNT
                                    {
                                        OFFSET 2.75183 -0.102866 -0.139054
                                        CHANNELS 3 Zrotation Xrotation Yrotation
                                        JOINT l_handIndex3_JNT
                                        {
                                            OFFSET 2.35301 -0.0733972 -0.0904871
                                            CHANNELS 3 Zrotation Xrotation Yrotation
                                            End Site
                                            {
                                                OFFSET 0 0 0
                                            }
                                        }
                                    }
                                }
                                JOINT l_handMiddle1_JNT
                                {
                                    OFFSET 10.0671 0.139201 0.0595726
                                    CHANNELS 3 Zrotation Xrotation Yrotation
                                    JOINT l_handMiddle2_JNT
                                    {
                                        OFFSET 3.90903 -0.288403 -0.119066
                                        CHANNELS 3 Zrotation Xrotation Yrotation
                                        JOINT l_handMiddle3_JNT
                                        {
                                            OFFSET 2.3284 -0.0191092 -0.0594396
                                            CHANNELS 3 Zrotation Xrotation Yrotation
                                            End Site
                                            {
                                                OFFSET 0 0 0
                                            }
                                        }
                                    }
                                }
                                JOINT l_handRing1_JNT
                                {
                                    OFFSET 9.46811 0.132239 -1.80983
                                    CHANNELS 3 Zrotation Xrotation Yrotation
                                    JOINT l_handRing2_JNT
                                    {
                                        OFFSET 3.28153 -0.224054 -0.0339366
                                        CHANNELS 3 Zrotation Xrotation Yrotation
                                        JOINT l_handRing3_JNT
                                        {
                                            OFFSET 2.245 -0.0702143 -0.00838935
                                            CHANNELS 3 Zrotation Xrotation Yrotation
                                            End Site
                                            {
                                                OFFSET 0 0 0
                                            }
                                        }
                                    }
                                }
                                JOINT l_handPinky1_JNT
                                {
                                    OFFSET 8.49077 -0.0777721 -3.58415
                                    CHANNELS 3 Zrotation Xrotation Yrotation
                                    JOINT l_handPinky2_JNT
                                    {
                                        OFFSET 2.53217 -0.0730753 -0.0170402
                                        CHANNELS 3 Zrotation Xrotation Yrotation
                                        JOINT l_handPinky3_JNT
                                        {
                                            OFFSET 1.95121 0.0251174 0.0170089
                                            CHANNELS 3 Zrotation Xrotation Yrotation
                                            End Site
                                            {
                                                OFFSET 0 0 0
                                            }
                                        }
                                    }
                                }
                            }
                        }
                    }
                }
                JOINT r_shoulder_JNT
                {
                    OFFSET -4.39782 12.8606 -1.48501
                    CHANNELS 3 Zrotation Xrotation Yrotation
                    JOINT r_arm_JNT
                    {
                        OFFSET -8.75732 -2.312 -0.0490502
                        CHANNELS 3 Zrotation Xrotation Yrotation
                        JOINT r_forearm_JNT
                        {
                            OFFSET -26.9 0 1.00583e-05
                            CHANNELS 3 Zrotation Xrotation Yrotation
                            JOINT r_hand_JNT
                            {
                                OFFSET -23.0149 0 0
                                CHANNELS 3 Zrotation Xrotation Yrotation
                                JOINT r_handThumb1_JNT
                                {
                                    OFFSET -3.63 -0.779998 2.13
                                    CHANNELS 3 Zrotation Xrotation Yrotation
                                    JOINT r_handThumb2_JNT
                                    {
                                        OFFSET -3.5512 -2.118 2.24006
                                        CHANNELS 3 Zrotation Xrotation Yrotation
                                        JOINT r_handThumb3_JNT
                                        {
                                            OFFSET -2.1591 -1.116 0.963467
                                            CHANNELS 3 Zrotation Xrotation Yrotation
                                            End Site
                                            {
                                                OFFSET 0 0 0
                                            }
                                        }
                                    }
                                }
                                JOINT r_handIndex1_JNT
                                {
                                    OFFSET -10.5149 -0.0409961 2.19756
                                    CHANNELS 3 Zrotation Xrotation Yrotation
                                    JOINT r_handIndex2_JNT
                                    {
                                        OFFSET -2.7518 -0.102997 -0.13905
                                        CHANNELS 3 Zrotation Xrotation Yrotation
                                        JOINT r_handIndex3_JNT
                                        {
                                            OFFSET -2.353 -0.0730038 -0.0904899
                                            CHANNELS 3 Zrotation Xrotation Yrotation
                                            End Site
                                            {
                                                OFFSET 0 0 0
                                            }
                                        }
                                    }
                                }
                                JOINT r_handMiddle1_JNT
                                {
                                    OFFSET -10.0671 0.139999 0.05957
                                    CHANNELS 3 Zrotation Xrotation Yrotation
                                    JOINT r_handMiddle2_JNT
                                    {
                                        OFFSET -3.9091 -0.288999 -0.11907
                                        CHANNELS 3 Zrotation Xrotation Yrotation
                                        JOINT r_handMiddle3_JNT
                                        {
                                            OFFSET -2.3284 -0.019002 -0.05944
                                            CHANNELS 3 Zrotation Xrotation Yrotation
                                            End Site
                                            {
                                                OFFSET 0 0 0
                                            }
                                        }
                                    }
                                }
                                JOINT r_handRing1_JNT
                                {
                                    OFFSET -9.4681 0.133002 -1.80983
                                    CHANNELS 3 Zrotation Xrotation Yrotation
                                    JOINT r_handRing2_JNT
                                    {
                                        OFFSET -3.2816 -0.224996 -0.0339396
                                        CHANNELS 3 Zrotation Xrotation Yrotation
                                        JOINT r_handRing3_JNT
                                        {
                                            OFFSET -2.245 -0.0699997 -0.0083901
                                            CHANNELS 3 Zrotation Xrotation Yrotation
                                            End Site
                                            {
                                                OFFSET 0 0 0
                                            }
                                        }
                                    }
                                }
                                JOINT r_handPinky1_JNT
                                {
                                    OFFSET -8.4908 -0.0769973 -3.58415
                                    CHANNELS 3 Zrotation Xrotation Yrotation
                                    JOINT r_handPinky2_JNT
                                    {
                                        OFFSET -2.5322 -0.0740051 -0.0170402
                                        CHANNELS 3 Zrotation Xrotation Yrotation
                                        JOINT r_handPinky3_JNT
                                        {
                                            OFFSET -1.9512 0.0259995 0.0170097
                                            CHANNELS 3 Zrotation Xrotation Yrotation
                                            End Site
                                            {
                                                OFFSET 0 0 0
                                            }
                                        }
                                    }
                                }
                            }
                        }
                    }
                }
            }
        }
    }
    JOINT l_upleg_JNT
    {
        OFFSET 10.0614 -5.18575 -0.706233
        CHANNELS 3 Zrotation Xrotation Yrotation
        JOINT l_leg_JNT
        {
            OFFSET -0.348572 -45.5824 -0.819168
            CHANNELS 3 Zrotation Xrotation Yrotation
            JOINT l_foot_JNT
            {
                OFFSET 0.349145 -42.3325 -1.70849
                CHANNELS 3 Zrotation Xrotation Yrotation
                JOINT l_toebase_JNT
                {
                    OFFSET 0.0702709 -8.12666 12.8887
                    CHANNELS 3 Zrotation Xrotation Yrotation
                    End Site
                    {
                        OFFSET 0 0 0
                    }
                }
            }
        }
    }
    JOINT r_upleg_JNT
    {
        OFFSET -10.061 -5.18577 -0.706233
        CHANNELS 3 Zrotation Xrotation Yrotation
        JOINT r_leg_JNT
        {
            OFFSET 0.34858 -45.5824 -0.819165
            CHANNELS 3 Zrotation Xrotation Yrotation
            JOINT r_foot_JNT
            {
                OFFSET -0.34918 -42.3325 -1.70849
                CHANNELS 3 Zrotation Xrotation Yrotation
                JOINT r_toebase_JNT
                {
                    OFFSET -0.0702001 -8.12666 12.8887
                    CHANNELS 3 Zrotation Xrotation Yrotation
                    End Site
                    {
                        OFFSET 0 0 0
                    }
                }
            }
        }
    }
}
MOTION
Frames: 4
Frame Time: 0.033333
0.45747 100.498 8.56658 1.32417 2.76336 2.95739 -2.2938 0.00278539 0 0.803448 1.95035 -3.09879 -2.68889e-08 4.26874e-07 0 2.30703 3.2406 -1.70084 -0.634325 -2.93913 0.068528 -2.68889e-08 4.26874e-07 0 -74.5803 32.3738 20.6931 1.87884 -1.3238 -70.3326 1.01778e-13 -3.41509e-06 0 4.10661 20.7048 -22.2077 -0 0 0 -17.7354 -0.272371 1.74401 -28.0794 8.03751 2.01239 -36.2514 10.0595 3.30062 -24.026 6.96393 1.48355 -32.7631 6.17726 1.81827 -42.2243 7.65508 2.95898 -28.0538 5.37343 1.34346 -37.2985 -3.4677 -1.17168 -47.9902 -4.24945 -1.89293 -31.9598 -3.02998 -0.866821 -41.0384 -7.48087 -2.80275 -52.9411 -9.06811 -4.52262 -35.1228 -6.56395 -2.08009 -2.68889e-08 4.26874e-07 0 71.1585 36.9685 -5.99666 -4.15836 -3.5739 81.3481 -7.68396e-06 3.41509e-06 0 -4.10661 20.7048 22.2077 -0 0 0 17.2976 0.259186 1.70451 27.3772 7.85461 -1.91595 35.3386 9.84406 -3.14269 23.4271 6.80179 -1.4122 31.948 6.04111 -1.73004 41.1699 7.50035 -2.82029 27.3571 5.25113 -1.27716 36.3752 -3.39407 1.11626 46.8011 -4.16938 1.80531 31.1691 -2.96279 0.828029 40.0141 -7.32774 2.67178 51.6136 -8.90963 4.31516 34.2483 -6.42195 1.98024 -2.17388 -2.5838 -4.41205 -0.445118 6.48195 0.799169 1.06276 -6.3316 2.57024 -0.00227165 -0.819827 -0.306467 -0.409324 -8.87711 1.36885 0.475238 15.2883 -0.473125 -1.32937 -8.87245 2.17321 0.00223387 -0.80346 0.30901 
-0.122836 100.586 9.76676 1.4566 2.60773 2.98689 -2.50656 0.00278944 0.0884693 0.872155 1.94751 -3.0135 2.67846e-08 -2.32951e-18 0 2.44128 2.80625 -1.79357 -0.715367 -2.08842 0 2.72015e-08 4.2858e-07 0 -74.6392 30.4343 23.593 1.63469 -1.14704 -70.112 2.24116e-06 -3.41509e-06 0 4.10661 20.7048 -22.2077 -0 0 0 -17.7124 -0.271669 1.74311 -28.0424 8.02791 2.00732 -36.2033 10.0483 3.29255 -23.9945 6.95541 1.47933 -32.7201 6.17012 1.81396 -42.1688 7.64699 2.95236 -28.0171 5.36701 1.33996 -37.2499 -3.46384 -1.16968 -47.9276 -4.24528 -1.88714 -31.9182 -3.02645 -0.863201 -40.9844 -7.47287 -2.79632 -52.8712 -9.05989 -4.51119 -35.0768 -6.55651 -2.07406 2.72015e-08 4.2858e-07 0 70.0987 37.3785 -3.69242 -5.67565 -5.92269 92.4448 6.83019e-06 2.03555e-13 0 -4.10661 20.7048 22.2077 -0 0 0 16.8994 0.247474 1.66643 26.7393 7.68728 -1.82943 34.5095 9.64598 -3.00283 22.8828 6.65371 -1.34753 31.2071 5.91626 -1.65228 40.2117 7.35748 -2.6954 26.7238 5.13924 -1.22075 35.5358 -3.32635 1.06825 45.7199 -4.09502 1.72687 30.4502 -2.90121 0.788322 39.0832 -7.18648 2.55343 50.4074 -8.76144 4.12976 33.4534 -6.29154 1.89128 -1.62638 2.06498 -6.10639 -0.434747 -1.28889 0.921953 0.887446 -3.07237 4.0066 -0.00249739 -0.737973 -0.311533 -0.193262 -7.28387 0.963466 0.475305 13.932 -0.395647 -1.75876 -8.94617 2.41187 0.00223368 -0.803545 0.306467 
-0.377121 100.651 10.9451 1.55257 2.41461 3.04451 -2.70124 0.00290833 0.0395647 0.931625 1.94518 -2.92359 -0 0 0 2.62669 2.39161 -1.92573 -0.839188 -1.3342 0 -0 0 0 -74.48 28.7837 26.1978 1.38801 -0.969313 -69.8561 -0 0 0 4.10661 20.7048 -22.2077 -0 0 0 -17.6722 -0.270446 1.73906 -27.9779 8.01115 1.99873 -36.1194 10.0286 3.27778 -23.9395 6.94054 1.4735 -32.6452 6.15766 1.80531 -42.0719 7.63287 2.93934 -27.9531 5.35581 1.33411 -37.165 -3.45711 -1.16296 -47.8184 -4.23799 -1.87966 -31.8456 -3.0203 -0.861386 -40.8903 -7.45889 -2.78425 -52.7492 -9.04551 -4.4924 -34.9964 -6.54352 -2.06574 -0 0 0 69.1354 37.3404 -1.49145 -6.93116 -8.50808 101.698 -0 0 0 -4.10661 20.7048 22.2077 -0 0 0 16.4474 0.234501 1.62265 26.0158 7.49623 -1.73365 33.5698 9.41878 -2.84763 22.2654 6.48492 -1.27654 30.3667 5.77336 -1.56919 39.1249 7.19285 -2.55894 26.0052 5.01149 -1.15757 34.5832 -3.24863 1.01103 44.493 -4.00886 1.6404 29.6343 -2.83076 0.749645 38.0274 -7.02388 2.42288 49.0396 -8.58862 3.92328 32.5517 -6.14208 1.79444 -1.54392 3.01315 -8.18599 -0.428682 -1.29 1.07555 0.954917 -3.81922 5.88382 -4.26887e-07 8.27093e-07 0.0559529 -0.129744 -5.62419 0.639188 0.475398 12.5133 -0.306467 -1.97051 -8.99119 2.57571 0.00223403 -0.803429 0.30901 
-0.362532 100.677 12.0583 1.62672 2.19661 3.13446 -2.88358 0.0028361 0 0.976507 1.94386 -2.84185 -0 0 0 2.83775 2.01451 -2.07557 -0.973076 -0.703856 0 2.11776e-07 -4.27512e-07 0 -74.1951 27.4972 28.4246 1.13727 -0.790445 -69.6002 1.4941e-06 -3.41509e-06 0 4.10661 20.7048 -22.2077 -0 0 0 -17.6233 -0.268963 1.73456 -27.8995 7.99076 1.98734 -36.0174 10.0046 3.26006 -23.8725 6.92246 1.46764 -32.5542 6.1425 1.79444 -41.9541 7.61568 2.92332 -27.8753 5.34217 1.32469 -37.0619 -3.44892 -1.15757 -47.6856 -4.2291 -1.86922 -31.7572 -3.01282 -0.859567 -40.7759 -7.44186 -2.76846 -52.6009 -9.02796 -4.46847 -34.8987 -6.52771 -2.05435 2.11776e-07 -4.27512e-07 0 68.3782 36.8799 0.46478 -7.74535 -10.7472 108.517 -1.70755e-06 -2.54444e-14 0 -4.10661 20.7048 22.2077 -0 0 0 16.0199 0.222544 1.58211 25.3319 7.3144 -1.64469 32.6819 9.20155 -2.70323 21.6817 6.32456 -1.2111 29.572 5.63703 -1.48829 38.0975 7.03476 -2.43094 25.3258 4.88991 -1.10073 33.6821 -3.17428 0.960211 43.3326 -3.92566 1.56169 28.8626 -2.76358 0.712165 37.0293 -6.86788 2.30262 47.7468 -8.42068 3.73206 31.6991 -5.99929 1.70451 -1.38966 3.19035 -10.4621 -0.426646 -1.29039 1.12812 0.931684 -3.78429 6.8496 4.26887e-07 8.80454e-07 0 -0.195982 -4.0646 0.411168 0.476115 11.2934 -0.2307 -2.00751 -9.10991 2.6349 0.00223063 -0.806475 0.314035 
